<?xml version="1.0" encoding="UTF-8"?>
<!DOCTYPE svg PUBLIC "-//W3C//DTD SVG 1.1//EN" "http://www.w3.org/Graphics/SVG/1.1/DTD/svg11.dtd">
<!-- Creator: CorelDRAW 2019 (64-Bit) -->
<svg xmlns="http://www.w3.org/2000/svg" xml:space="preserve" width="514px" height="151px" version="1.1" style="shape-rendering:geometricPrecision; text-rendering:geometricPrecision; image-rendering:optimizeQuality; fill-rule:evenodd; clip-rule:evenodd"
viewBox="0 0 205.3 60.29"
 xmlns:xlink="http://www.w3.org/1999/xlink">
 <defs>
  <style type="text/css">
   <![CDATA[
    .fil1 {fill:#FFD544;fill-rule:nonzero}
    .fil0 {fill:white;fill-rule:nonzero}
   ]]>
  </style>
 </defs>
 <g id="Слой_x0020_1">
  <metadata id="CorelCorpID_0Corel-Layer"/>
  <path class="fil0" d="M25.19 40.94c-1.46,0 -2.86,-0.21 -4.21,-0.64 -1.35,-0.42 -2.45,-0.97 -3.3,-1.64l1.65 -4.33c0.8,0.59 1.72,1.08 2.77,1.46 1.04,0.39 2.08,0.58 3.12,0.58 0.7,0 1.26,-0.07 1.68,-0.22 0.43,-0.15 0.74,-0.35 0.93,-0.59 0.2,-0.25 0.29,-0.54 0.29,-0.88 0,-0.47 -0.18,-0.85 -0.56,-1.12 -0.37,-0.28 -0.85,-0.51 -1.45,-0.69 -0.59,-0.17 -1.25,-0.35 -1.97,-0.53 -0.73,-0.18 -1.45,-0.41 -2.17,-0.68 -0.72,-0.28 -1.38,-0.64 -1.97,-1.09 -0.6,-0.44 -1.08,-1.02 -1.46,-1.74 -0.37,-0.73 -0.56,-1.64 -0.56,-2.75 0,-1.24 0.3,-2.37 0.88,-3.38 0.59,-1.01 1.47,-1.82 2.64,-2.43 1.17,-0.61 2.63,-0.92 4.38,-0.92 1.17,0 2.32,0.15 3.45,0.46 1.13,0.31 2.14,0.76 3.02,1.35l-1.55 4.36c-0.85,-0.53 -1.69,-0.94 -2.52,-1.2 -0.84,-0.27 -1.64,-0.4 -2.42,-0.4 -0.7,0 -1.26,0.08 -1.69,0.25 -0.42,0.17 -0.73,0.39 -0.91,0.67 -0.19,0.27 -0.28,0.59 -0.28,0.95 0,0.45 0.18,0.81 0.54,1.08 0.37,0.27 0.85,0.48 1.46,0.65 0.6,0.17 1.26,0.34 1.98,0.52 0.73,0.18 1.45,0.4 2.17,0.67 0.72,0.26 1.38,0.62 1.97,1.06 0.6,0.45 1.08,1.03 1.44,1.75 0.37,0.73 0.55,1.63 0.55,2.72 0,1.2 -0.29,2.32 -0.88,3.33 -0.58,1.02 -1.46,1.84 -2.62,2.45 -1.17,0.61 -2.63,0.92 -4.4,0.92z"/>
  <path id="1" class="fil0" d="M47.37 40.94c-1.43,0 -2.74,-0.27 -3.95,-0.8 -1.2,-0.53 -2.25,-1.29 -3.15,-2.27 -0.89,-0.98 -1.58,-2.12 -2.07,-3.42 -0.49,-1.31 -0.74,-2.74 -0.74,-4.3 0,-1.57 0.25,-3 0.74,-4.3 0.49,-1.31 1.18,-2.45 2.07,-3.43 0.9,-0.98 1.95,-1.73 3.15,-2.27 1.21,-0.53 2.52,-0.8 3.95,-0.8 1.44,0 2.76,0.27 3.96,0.8 1.2,0.54 2.24,1.29 3.12,2.27 0.89,0.98 1.58,2.12 2.08,3.43 0.5,1.3 0.75,2.73 0.75,4.3 0,1.56 -0.25,3 -0.75,4.31 -0.5,1.31 -1.19,2.46 -2.08,3.43 -0.88,0.96 -1.92,1.72 -3.12,2.25 -1.2,0.53 -2.52,0.8 -3.96,0.8zm0 -4.86c0.68,0 1.31,-0.14 1.9,-0.42 0.58,-0.28 1.09,-0.68 1.53,-1.2 0.43,-0.52 0.77,-1.15 1.02,-1.88 0.24,-0.73 0.36,-1.55 0.36,-2.43 0,-0.91 -0.12,-1.73 -0.36,-2.45 -0.25,-0.72 -0.59,-1.35 -1.02,-1.87 -0.44,-0.52 -0.95,-0.92 -1.53,-1.2 -0.59,-0.28 -1.22,-0.42 -1.9,-0.42 -0.68,0 -1.31,0.14 -1.9,0.42 -0.58,0.28 -1.09,0.68 -1.53,1.2 -0.43,0.52 -0.77,1.15 -1.02,1.87 -0.24,0.72 -0.36,1.54 -0.36,2.45 0,0.88 0.12,1.7 0.36,2.43 0.25,0.73 0.59,1.36 1.02,1.88 0.44,0.52 0.95,0.92 1.53,1.2 0.59,0.28 1.22,0.42 1.9,0.42z"/>
  <path id="2" class="fil0" d="M62.9 40.52l0 -20.75 7.97 0c2.6,0 4.6,0.68 6,2.06 1.4,1.37 2.1,3.24 2.1,5.62 0,1.56 -0.32,2.91 -0.97,4.04 -0.64,1.14 -1.55,2.01 -2.73,2.61 -1.18,0.61 -2.59,0.91 -4.22,0.91l-5.35 0 2.24 -2.46 0 7.97 -5.04 0zm11.03 0l-4.43 -7.56 5.37 0 4.46 7.56 -5.4 0zm-5.99 -7.35l-2.24 -2.7 5.04 0c1.06,0 1.84,-0.27 2.36,-0.8 0.52,-0.53 0.78,-1.27 0.78,-2.22 0,-0.97 -0.26,-1.72 -0.78,-2.26 -0.52,-0.53 -1.3,-0.8 -2.36,-0.8l-5.04 0 2.24 -2.7 0 11.48z"/>
  <polygon id="3" class="fil0" points="90.19,40.52 82.58,19.77 88.03,19.77 94.45,37.74 91.24,37.74 97.81,19.77 102.8,19.77 95.16,40.52 "/>
  <polygon id="4" class="fil0" points="106.82,40.52 106.82,19.77 111.86,19.77 111.86,40.52 "/>
  <path id="5" class="fil0" d="M118.42 40.52l0 -20.75 9.12 0c2.34,0 4.09,0.49 5.25,1.49 1.15,1 1.73,2.31 1.73,3.93 0,1.07 -0.24,2 -0.73,2.81 -0.48,0.8 -1.16,1.43 -2.03,1.89 -0.88,0.47 -1.92,0.7 -3.12,0.7l0.51 -1.42c1.25,0 2.35,0.22 3.28,0.66 0.94,0.45 1.66,1.09 2.18,1.93 0.52,0.84 0.78,1.86 0.78,3.07 0,1.8 -0.63,3.2 -1.88,4.2 -1.24,1 -3.07,1.49 -5.46,1.49l-9.63 0zm4.99 -4.24l4.23 0c0.87,0 1.53,-0.17 1.98,-0.52 0.45,-0.34 0.67,-0.87 0.67,-1.58 0,-0.71 -0.22,-1.24 -0.67,-1.59 -0.45,-0.34 -1.11,-0.52 -1.98,-0.52l-4.58 0 0 -4.06 3.82 0c0.85,0 1.48,-0.17 1.91,-0.5 0.42,-0.34 0.64,-0.84 0.64,-1.52 0,-0.67 -0.22,-1.17 -0.64,-1.49 -0.43,-0.33 -1.06,-0.49 -1.91,-0.49l-3.47 0 0 12.27z"/>
  <path id="6" class="fil0" d="M138.84 40.52l7.87 -20.75 4.97 0 7.9 20.75 -5.25 0 -6.17 -17.88 1.99 0 -6.17 17.88 -5.14 0zm4.3 -4.03l1.3 -4.33 8.72 0 1.3 4.33 -11.32 0z"/>
  <polygon id="7" class="fil0" points="163.97,40.52 163.97,19.77 168.12,19.77 177.96,33.59 175.99,33.59 175.99,19.77 180.94,19.77 180.94,40.52 176.78,40.52 166.95,26.71 168.91,26.71 168.91,40.52 "/>
  <path id="8" class="fil0" d="M191.98 35.93l-0.28 -6.59 7.67 -9.57 5.55 0 -7.64 9.63 -2.8 3.41 -2.5 3.12zm-4.51 4.59l0 -20.75 4.99 0 0 20.75 -4.99 0zm11.97 0l-5.8 -8.57 3.28 -4.09 8.38 12.66 -5.86 0z"/>
  <path class="fil1" d="M54.83 47.45c-2.77,3.96 -6.48,7.21 -10.79,9.46 -4.16,2.16 -8.88,3.38 -13.89,3.38 -8.33,0 -15.86,-3.37 -21.32,-8.83 -5.46,-5.45 -8.83,-12.99 -8.83,-21.31 0,-8.33 3.37,-15.87 8.83,-21.32 5.46,-5.46 12.99,-8.83 21.32,-8.83 5.18,0 10.06,1.31 14.32,3.61 4.42,2.39 8.18,5.86 10.92,10.04l-1.78 1.16c-2.55,-3.89 -6.04,-7.11 -10.14,-9.33 -3.96,-2.14 -8.5,-3.36 -13.32,-3.36 -7.74,0 -14.75,3.14 -19.82,8.21 -5.07,5.07 -8.21,12.08 -8.21,19.82 0,7.73 3.14,14.74 8.21,19.81 5.07,5.07 12.08,8.21 19.82,8.21 4.66,0 9.05,-1.14 12.91,-3.15 4.01,-2.08 7.46,-5.11 10.04,-8.79l1.73 1.22z"/>
  <path class="fil1" d="M51.22 44.92c-2.4,3.41 -5.6,6.22 -9.34,8.16 -3.59,1.86 -7.67,2.92 -12,2.92 -7.2,0 -13.72,-2.92 -18.44,-7.64 -4.72,-4.72 -7.65,-11.24 -7.65,-18.45 0,-7.2 2.93,-13.72 7.65,-18.44 4.72,-4.72 11.24,-7.64 18.44,-7.64 4.55,0 8.82,1.16 12.55,3.21 3.86,2.11 7.12,5.18 9.48,8.89l-1.34 0.85c-2.21,-3.48 -5.28,-6.36 -8.91,-8.35 -3.49,-1.92 -7.5,-3.01 -11.78,-3.01 -6.76,0 -12.89,2.74 -17.32,7.17 -4.43,4.44 -7.17,10.56 -7.17,17.32 0,6.77 2.74,12.89 7.17,17.32 4.43,4.43 10.56,7.18 17.32,7.18 4.07,0 7.91,-0.99 11.28,-2.74 3.5,-1.82 6.51,-4.46 8.76,-7.66l1.3 0.91z"/>
 </g>
</svg>
