<?xml version="1.0" encoding="UTF-8"?>
<!DOCTYPE svg PUBLIC "-//W3C//DTD SVG 1.1//EN" "http://www.w3.org/Graphics/SVG/1.1/DTD/svg11.dtd">
<!-- Creator: CorelDRAW 2019 (64-Bit) -->
<svg xmlns="http://www.w3.org/2000/svg" xml:space="preserve" width="41px" height="50px" version="1.1" style="shape-rendering:geometricPrecision; text-rendering:geometricPrecision; image-rendering:optimizeQuality; fill-rule:evenodd; clip-rule:evenodd"
viewBox="0 0 3.03 3.71"
 xmlns:xlink="http://www.w3.org/1999/xlink">
 <defs>
  <style type="text/css">
   <![CDATA[
    .fil0 {fill:#FFD544}
   ]]>
  </style>
 </defs>
 <g id="Слой_x0020_1">
  <metadata id="CorelCorpID_0Corel-Layer"/>
  <path class="fil0" d="M2.99 1.85c0.25,-0.99 -0.61,-1.85 -1.46,-1.85 -0.86,0 -1.78,0.88 -1.47,1.85 0.16,0.47 0.27,0.6 0.46,0.86 0.14,0.22 0.73,1 1.01,1 0.37,0 1.35,-1.44 1.46,-1.86zm-1.49 -0.87c0.29,0 0.52,0.24 0.52,0.53 0,0.29 -0.23,0.52 -0.52,0.52 -0.29,0 -0.53,-0.23 -0.53,-0.52 0,-0.29 0.24,-0.53 0.53,-0.53zm0.02 -0.46c-0.55,0 -0.99,0.44 -0.99,0.99 0,0.54 0.44,0.98 0.99,0.98 0.54,0 0.98,-0.44 0.98,-0.98 0,-0.55 -0.44,-0.99 -0.98,-0.99z"/>
 </g>
</svg>
